# xmcd CD database file
#
# Track frame offsets:
#	150
#	34388
#	63319
#	105034
#	119071
#	153980
#	168915
#	201841
#	215712
#
# Disc length: 3763 seconds
#
# Revision: 5
# Processed by: cddbd v1.5.2PL0 Copyright (c) Steve Scherf et al.
# Submitted via: CDex 1.70beta2
#
DISCID=7b0eb109
DTITLE=Mustafa Kandirali and Ensemble - Caz Roman
DYEAR=1992
DGENRE=Folklore
TTITLE0=Nihavent Longa
TTITLE1=Üsküdara Gideriken
TTITLE2=Nihavent Oryental
TTITLE3=Taksim (Oud Solo)
TTITLE4=Kandira Karsilamasi
TTITLE5=Hicaz Taksimi (Kanoun Solo)
TTITLE6=Mastika
TTITLE7=Caz Roman
TTITLE8=Collection Of Dancetunes
EXTD=YEAR: 1992
EXTT0=
EXTT1=
EXTT2=
EXTT3=
EXTT4=
EXTT5=
EXTT6=
EXTT7=
EXTT8=
PLAYORDER=
